<?xml version="1.0" encoding="UTF-8"?>
<svg xmlns="http://www.w3.org/2000/svg" width="1024" height="1024" viewBox="0 0 200 200">
  <defs>
    <linearGradient id="grad" x1="0%" y1="0%" x2="100%" y2="100%">
      <stop offset="0%" stop-color="#A7C7E7"/>
      <stop offset="100%" stop-color="#C7B8E7"/>
    </linearGradient>
    <style>
      .stroke { fill: none; stroke: url(#grad); stroke-width: 12; stroke-linecap: round; stroke-linejoin: round; }
    </style>
  </defs>

  <!-- Cloud outline with subtle straight bottom segment -->
  <path class="stroke" d="
    M 45 120
    C 28 120, 18 108, 18 94
    C 18 80, 28 70, 42 68
    C 46 52, 62 42, 78 44
    C 86 34, 100 30, 114 34
    C 130 38, 140 52, 140 66
    C 156 66, 170 80, 170 96
    C 170 112, 156 124, 140 124
    L 82 124
    C 70 124, 56 122, 45 120
  "/>

  <!-- Circuit connectors (bottom left to right node) -->
  <path class="stroke" d="M 58 120 L 110 120 L 128 92"/>
  
  <!-- Node rings -->
  <circle class="stroke" cx="62" cy="120" r="10"/>
  <circle class="stroke" cx="128" cy="92" r="10"/>
</svg>
